<?xml version="1.0" encoding="UTF-8"?>
<svg version="1.1" xmlns="http://www.w3.org/2000/svg" width="2000" height="2889">
<path d="M0 0 C1.53914063 0.02900391 1.53914063 0.02900391 3.109375 0.05859375 C28.46200419 0.56925097 53.67054503 2.73964443 78.80102539 6.06774902 C80.31757474 6.2682509 81.83465273 6.46480534 83.35229492 6.65686035 C99.31420444 8.70038 113.93157154 12.98740585 128 21 C129.01320313 21.56074219 130.02640625 22.12148438 131.0703125 22.69921875 C143.0398188 30.21685145 146.23001655 43.32320125 149.2734375 56.34375 C157.56604459 98.07428889 144.78904851 144.39483311 132 184 C131.45351807 185.7010791 131.45351807 185.7010791 130.89599609 187.43652344 C119.31563784 223.09983938 104.22525315 257.71119682 87 291 C86.52820312 291.93714844 86.05640625 292.87429688 85.5703125 293.83984375 C78.90880294 306.65478163 70.03868763 318.11817237 61.12524414 329.42358398 C57.59699402 333.90727089 54.20201098 338.44642794 50.9375 343.125 C45.80050706 350.4629517 40.13440565 357.34172535 34.43652344 364.24755859 C32.59385867 366.49545929 30.79623993 368.77740996 29 371.0625 C20.61451627 381.54873122 11.62702005 391.45049353 2.36791992 401.1652832 C-1.29954777 405.05573746 -4.60177497 408.99258775 -7.75 413.3125 C-17.55424837 426.4669438 -30.04660007 437.99137579 -43 448 C-45.67649059 450.15461419 -48.33745847 452.32818688 -51 454.5 C-52.38127332 455.6226876 -53.7627792 456.74508914 -55.14453125 457.8671875 C-56.13380615 458.6710791 -56.13380615 458.6710791 -57.14306641 459.49121094 C-58.76566368 460.80959789 -60.38865777 462.12749645 -62.01171875 463.4453125 C-66.24279769 466.89194323 -70.43734197 470.36925182 -74.57421875 473.92871094 C-82.43706892 480.67305639 -90.64565765 486.87998073 -99 493 C-99.71849121 493.52883789 -100.43698242 494.05767578 -101.17724609 494.60253906 C-118.33074747 507.21083643 -136.08409662 518.80772245 -154.08642578 530.16162109 C-156.05228112 531.4020175 -158.01677 532.64458186 -159.97998047 533.88916016 C-173.78329411 542.63773923 -187.69481176 551.09623131 -202 559 C-203.04075684 559.57717773 -204.08151367 560.15435547 -205.15380859 560.74902344 C-241.92597411 581.05386516 -280.23831847 597.46643156 -320 611 C-321.08007324 611.37044434 -322.16014648 611.74088867 -323.27294922 612.12255859 C-370.87894071 628.32930948 -420.21784642 639.15073627 -470 646 C-470.71339539 646.09841187 -471.42679077 646.19682373 -472.1618042 646.29821777 C-508.91485512 651.32097652 -545.85990382 653.27310406 -582.93338394 653.31007385 C-584.95383291 653.3124458 -586.97427757 653.31786935 -588.99472046 653.32336426 C-608.40978936 653.35185054 -627.65039596 652.46850569 -647 651 C-647.17434822 652.28576431 -647.17434822 652.28576431 -647.35221863 653.59750366 C-648.4979647 661.85475402 -649.86614764 670.03836699 -651.42578125 678.2265625 C-651.89540026 680.72694876 -652.3644546 683.22744114 -652.83300781 685.72802734 C-653.07490845 687.01618347 -653.31680908 688.3043396 -653.56604004 689.63153076 C-660.73664756 727.91700632 -665.68324956 766.05814702 -669.36920071 804.82419682 C-669.65766617 807.85393385 -669.94995308 810.88329742 -670.24243355 813.91264915 C-670.44374696 816.01702095 -670.6388339 818.12190828 -670.83372498 820.22688293 C-671.58818477 828.04633928 -672.50591242 835.51773727 -675 843 C-673.92000732 842.67725098 -672.84001465 842.35450195 -671.72729492 842.02197266 C-666.28286807 840.67407587 -660.94925041 840.63211661 -655.36328125 840.6484375 C-653.66695305 840.65271255 -653.66695305 840.65271255 -651.93635559 840.65707397 C-638.21887742 840.84524562 -624.75184397 842.71104866 -611.1875 844.625 C-609.16180608 844.90351333 -607.13580156 845.17968454 -605.10976696 845.45570755 C-596.73409414 846.59782041 -588.36583395 847.78779626 -580 849 C-579.00077515 849.14433472 -578.00155029 849.28866943 -576.9720459 849.43737793 C-488.07021971 862.34165907 -402.82823628 889.53380146 -290 948 C-288.99420898 948.59135742 -287.98841797 949.18271484 -286.95214844 949.79199219 C-267.5304195 961.24737745 -248.44765345 973.21989651 -229.75341797 985.82763672 C-227.96080013 987.02620966 -226.1562904 988.20466168 -224.34765625 989.37890625 C-210.34825478 998.50254617 -197.22133976 1008.70198726 -184.59033203 1019.63183594 C-182.96498072 1021.03012712 -181.32625422 1022.41116193 -179.68359375 1023.7890625 C-171.49312946 1030.68617215 -163.68042506 1037.93135032 -155.9140625 1045.30078125 C-152.10680377 1048.91086214 -148.2356589 1052.44148633 -144.31640625 1055.9296875 C-141.7079205 1058.26104913 -139.13735264 1060.63157015 -136.5625 1063 C-132.09010151 1067.07611002 -127.46855797 1070.91055091 -122.76171875 1074.7109375 C-118.99378379 1077.83400664 -115.39495706 1081.12503189 -111.80078125 1084.4453125 C-110.35112881 1085.76758962 -108.89753269 1087.08676806 -107.40014648 1088.35473633 C-100.71377034 1094.03407954 -94.5795018 1100.26986972 -88.39086914 1106.47875977 C-86.4420313 1108.43295624 -84.48790728 1110.38175147 -82.53320312 1112.33007812 C-76.47598984 1118.38371498 -70.51594147 1124.44204416 -65 1131 C-63.95557424 1132.19225418 -62.90868269 1133.38235267 -61.859375 1134.5703125 C-55.14011593 1142.2352846 -48.68560741 1150.04408532 -42.46289062 1158.11621094 C-40.91212796 1160.11315432 -39.34076701 1162.09255155 -37.765625 1164.0703125 C-12.42122286 1196.03008234 9.50826917 1231.0680054 28.49560547 1267.14697266 C29.96421857 1269.93214187 31.45100905 1272.70690865 32.94140625 1275.48046875 C73.31291747 1351.08958067 101.40582566 1434.68228667 120 1547 C120.16725586 1548.20011719 120.33451172 1549.40023438 120.50683594 1550.63671875 C122.34187456 1564.22784353 123.34281126 1577.85831537 124.0625 1591.546875 C124.10624504 1592.37886099 124.14999008 1593.21084698 124.19506073 1594.06804466 C125.18410895 1613.40959177 125.30752837 1632.73632164 125.26074219 1652.09936523 C125.24930774 1656.87283695 125.25617328 1661.64608656 125.26761341 1666.4195509 C125.33045308 1697.27510265 124.25695884 1727.87835664 120.8125 1758.5625 C120.70740112 1759.51392883 120.60230225 1760.46535767 120.49401855 1761.44561768 C111.39725264 1843.00277151 88.92489761 1923.85679604 8 2093 C7.27103516 2094.20438721 7.27103516 2094.20438721 6.52734375 2095.43310547 C-7.48532183 2118.52786064 -23.35786594 2140.48621788 -40.58496094 2161.28076172 C-41.84502665 2162.81171112 -43.08419469 2164.35980647 -44.3203125 2165.91015625 C-48.66129032 2171.3483923 -53.24672104 2176.48653756 -58 2181.5625 C-58.59731934 2182.20751465 -59.19463867 2182.8525293 -59.81005859 2183.51708984 C-62.46126369 2186.36613521 -65.11403462 2189.14942819 -68.00390625 2191.7578125 C-72.63596139 2196.02969411 -72.63596139 2196.02969411 -74.15625 2201.890625 C-71.17450639 2217.19167775 -56.87510224 2229.32016383 -45.46484375 2239.02636719 C-40.59793592 2243.27312236 -36.05477541 2247.83149547 -31.50927734 2252.41555786 C-29.9630726 2253.97473727 -28.41358104 2255.53058621 -26.86328125 2257.08569336 C-23.01655775 2260.94565803 -19.17535284 2264.81109902 -15.33398438 2268.6763916 C-12.07574304 2271.95449442 -8.8153701 2275.23044992 -5.55224609 2278.50369263 C-4.03923948 2280.02309466 -2.5293203 2281.54551703 -1.01953125 2283.06811523 C3.62231284 2287.73448722 8.30929863 2292.28950227 13.32048035 2296.56106567 C16.06475322 2298.91223104 18.67772041 2301.40278926 21.3125 2303.875 C25.24097939 2307.54006361 29.21965083 2311.04053517 33.4375 2314.375 C38.62109417 2318.52793802 43.25549094 2323.1087597 47.87866211 2327.86474609 C50.72401545 2330.78063849 53.60707247 2333.56499753 56.703125 2336.21484375 C61.71785805 2340.54331212 66.37436176 2345.2243348 71.0456543 2349.9152832 C72.5599258 2351.43491668 74.0794743 2352.94912517 75.59960938 2354.46289062 C76.58886239 2355.45280459 77.57780508 2356.4430288 78.56640625 2357.43359375 C79.44240479 2358.31072021 80.31840332 2359.18784668 81.22094727 2360.09155273 C83.34514149 2362.26948717 85.34861169 2364.53015775 87.33813477 2366.83154297 C91.07533048 2371.13631923 95.01454811 2375.2105981 99.0234375 2379.26171875 C99.76904938 2380.01540237 100.51466125 2380.769086 101.28286743 2381.54560852 C102.84954509 2383.12601927 104.41771166 2384.70495533 105.98730469 2386.2824707 C107.58001586 2387.8867445 109.16823922 2389.49548617 110.75195312 2391.10864258 C113.06178589 2393.46129433 115.38472509 2395.80027411 117.7109375 2398.13671875 C118.40810883 2398.85139816 119.10528015 2399.56607758 119.82357788 2400.30241394 C124.44969064 2404.90854891 129.13134589 2408.14041519 135 2411 C135 2413.64 135 2416.28 135 2419 C136.3921875 2419.2475 136.3921875 2419.2475 137.8125 2419.5 C152.44723723 2423.78190709 165.35861356 2440.14882464 175.39770508 2450.98608398 C183.16044604 2459.36534583 191.06256627 2467.66141509 199.77734375 2475.0625 C202.91996853 2477.80194093 205.95369647 2480.65431059 209 2483.5 C213.19951695 2487.41855948 217.42520709 2491.28413711 221.77204895 2495.03938293 C230.67899641 2502.87757722 239.22157209 2511.07832957 247.57496071 2519.49979591 C249.20130341 2521.1392615 250.83106488 2522.77526634 252.46159363 2524.41056824 C255.91478846 2527.87500549 259.36395065 2531.34343937 262.8125 2534.8125 C266.83439461 2538.85818287 270.85802723 2542.90210793 274.8859005 2546.94183922 C276.47647868 2548.53880576 278.06397198 2550.13879303 279.65132141 2551.7389679 C284.92931512 2557.04360213 290.29878004 2562.15217268 296 2567 C297.83869148 2568.6607536 299.6726557 2570.32676908 301.5 2572 C304.61907011 2574.84524228 307.74755391 2577.6719958 310.9375 2580.4375 C324.47702417 2592.27294868 337.08433677 2604.99855681 349.75 2617.75 C353.28409956 2621.30791331 356.81995089 2624.86405207 360.36005402 2628.41599274 C361.7556293 2629.81794095 363.1480964 2631.22298106 364.54046631 2632.62811279 C369.52709952 2637.63386394 374.61001968 2642.43155739 380 2647 C381.11760026 2647.96176015 382.23485252 2648.92392503 383.3515625 2649.88671875 C384.44239263 2650.82068135 385.53354558 2651.75426704 386.625 2652.6875 C387.21837158 2653.19587402 387.81174316 2653.70424805 388.4230957 2654.22802734 C391.48776706 2656.85327446 394.55595144 2659.47429764 397.62890625 2662.08984375 C404.03744639 2667.55162796 410.35657394 2673.08087431 416.55859375 2678.77734375 C418.65399683 2680.68499871 420.7810429 2682.53736202 422.9375 2684.375 C435.02415392 2694.96947443 444.74691763 2705.48283043 450 2721 C450.31066406 2721.81597656 450.62132812 2722.63195313 450.94140625 2723.47265625 C456.25612207 2739.27380687 451.41146328 2757.64213199 444.375 2772.125 C437.96252314 2784.66740584 428.63249643 2794.85657552 419 2805 C418.43152344 2805.63292969 417.86304688 2806.26585938 417.27734375 2806.91796875 C405.32882472 2819.78325395 387.40734033 2830.96824261 370 2834 C368.99839844 2834.1753125 367.99679687 2834.350625 366.96484375 2834.53125 C348.12049994 2836.91255226 328.95858444 2826.75127885 314.32421875 2815.62109375 C297.51722632 2802.48036855 282.38073686 2787.73194703 268 2772 C267.02737389 2770.94137855 266.05471997 2769.88278266 265.08203125 2768.82421875 C260.92255787 2764.27459809 256.82104155 2759.67997486 252.77734375 2755.02734375 C250.02105488 2751.88335711 247.21246911 2748.78690618 244.40625 2745.6875 C243.09477509 2744.22273582 241.78874559 2742.75270481 240.51171875 2741.2578125 C235.61755175 2735.54986129 230.35443873 2730.27452174 225 2725 C223.26834421 2723.29418982 221.53913574 2721.58589134 219.8125 2719.875 C219.05582031 2719.12992188 218.29914063 2718.38484375 217.51953125 2717.6171875 C215.52818206 2715.54865424 213.65110871 2713.45586672 211.78112793 2711.28112793 C208.3276948 2707.32365067 204.71104562 2703.58176029 200.98242188 2699.88476562 C200.31964737 2699.22345139 199.65687286 2698.56213715 198.97401428 2697.88078308 C197.54890652 2696.45945143 196.12264582 2695.03927499 194.69532776 2693.62016296 C192.43049183 2691.36820944 190.1688985 2689.11304304 187.90808105 2686.85705566 C183.10819934 2682.06854507 178.30439696 2677.28397981 173.5 2672.5 C167.9281946 2666.951873 162.358051 2661.40209855 156.79212952 2655.84806824 C154.57469922 2653.63707313 152.35425586 2651.42913559 150.13366699 2649.22131348 C148.76148793 2647.85277027 147.38945093 2646.48408459 146.01757812 2645.11523438 C145.10402306 2644.20942879 145.10402306 2644.20942879 144.17201233 2643.2853241 C140.47013435 2639.583896 136.96710834 2635.75605072 133.54851532 2631.79129791 C130.87678906 2628.70068744 128.0971501 2625.71168794 125.32861328 2622.70776367 C124.60520752 2621.92236206 124.60520752 2621.92236206 123.8671875 2621.12109375 C123.38733398 2620.60015137 122.90748047 2620.07920898 122.41308594 2619.54248047 C121.08196687 2618.08947248 119.76321419 2616.62516318 118.4453125 2615.16015625 C112.21545862 2608.25808409 105.73266908 2601.65576803 99.10107422 2595.13793945 C95.73258732 2591.81085868 92.47694842 2588.45531447 89.390625 2584.86328125 C86.30371814 2581.28166659 83.00293857 2578.10555977 79.5 2574.9375 C71.53251705 2567.5865662 63.82663702 2559.97524303 56.14746094 2552.32571411 C54.77220333 2550.95655579 53.39512502 2549.58922353 52.01611328 2548.22384644 C45.09758138 2541.36921568 38.3366196 2534.54398359 32.29501343 2526.88644409 C24.08373621 2516.55910033 15.31168515 2507.01956317 5.95703125 2497.7265625 C4.73601712 2496.50674537 3.51537783 2495.28655295 2.29508972 2494.06600952 C-0.23890504 2491.53356277 -2.77617065 2489.00445922 -5.31616211 2486.47802734 C-8.55211103 2483.25914793 -11.78135672 2480.03364362 -15.00840282 2476.80584145 C-17.51927978 2474.29523772 -20.0327639 2471.78725787 -22.54711342 2469.28013229 C-23.73847098 2468.09192748 -24.92924973 2466.90314199 -26.11940575 2465.71373367 C-32.24197866 2459.59922789 -38.40632348 2453.61144068 -45 2448 C-51.72159334 2441.75067548 -57.23314597 2436.58567534 -58 2427 C-58.99966797 2426.77570312 -58.99966797 2426.77570312 -60.01953125 2426.546875 C-69.28834983 2423.90234494 -74.17750626 2418.21654831 -80 2411 C-80.70253906 2410.13117187 -81.40507813 2409.26234375 -82.12890625 2408.3671875 C-82.80824219 2407.52414063 -83.48757813 2406.68109375 -84.1875 2405.8125 C-94.13893112 2393.49672176 -105.52155096 2382.33025296 -116.79663086 2371.23999023 C-121.42358413 2366.66886588 -125.78976884 2361.95695378 -130 2357 C-130.50845459 2356.40243896 -131.01690918 2355.80487793 -131.54077148 2355.18920898 C-132.51986465 2354.03549024 -133.4979192 2352.88088916 -134.47485352 2351.7253418 C-141.031454 2343.99115792 -147.62350605 2336.85335249 -155.5625 2330.5 C-162.49178928 2324.91434022 -168.06381395 2319.02981954 -172 2311 C-172 2310.01 -172 2309.02 -172 2308 C-183.81906362 2310.09693064 -191.92880901 2315.35004465 -201 2323 C-211.34578204 2331.61163754 -221.93240473 2339.73501249 -232.91601562 2347.51708984 C-234.80255573 2348.85950369 -236.67732316 2350.21610726 -238.546875 2351.58203125 C-300.95995598 2397.05949443 -372.5587459 2430.10239298 -445.95544434 2453.35083008 C-447.90708781 2453.97049931 -449.85643849 2454.59737589 -451.80566406 2455.22460938 C-517.49050768 2476.26772804 -586.66359606 2486.19173574 -655.09667969 2493.01025391 C-669.54766373 2494.4478146 -669.54766373 2494.4478146 -683.73779297 2497.43823242 C-686 2498 -686 2498 -689 2498 C-689 2496.68 -689 2495.36 -689 2494 C-689.61338226 2494.00770416 -690.22676453 2494.01540833 -690.85873413 2494.02334595 C-696.72788038 2494.06502774 -702.50526036 2493.83461416 -708.3515625 2493.3359375 C-709.22732437 2493.26369461 -710.10308624 2493.19145172 -711.00538635 2493.11701965 C-713.87920982 2492.876385 -716.75215898 2492.62708366 -719.625 2492.375 C-720.62608795 2492.2876358 -721.6271759 2492.20027161 -722.65859985 2492.11026001 C-796.31679312 2485.61389004 -868.88184067 2472.79316544 -939.78442383 2451.65673828 C-945.80252288 2449.91836757 -951.71655363 2449.02601841 -958 2449 C-958.33 2446.69 -958.66 2444.38 -959 2442 C-959.68175293 2441.81002441 -960.36350586 2441.62004883 -961.06591797 2441.42431641 C-987.03373377 2434.12317013 -1011.68386448 2424.68148306 -1036 2413 C-1036.9276416 2412.55543457 -1037.8552832 2412.11086914 -1038.81103516 2411.65283203 C-1078.39388295 2392.56239072 -1115.25201826 2368.44266035 -1151 2343 C-1151.75442383 2342.46310547 -1152.50884766 2341.92621094 -1153.28613281 2341.37304688 C-1162.84934069 2334.54988252 -1172.29226468 2327.57937626 -1181.63793945 2320.4609375 C-1185.60637058 2317.45818005 -1189.59023985 2314.56629854 -1193.78515625 2311.88671875 C-1194.52942871 2311.40605957 -1195.27370117 2310.92540039 -1196.04052734 2310.43017578 C-1197.42620111 2309.54746661 -1198.82571226 2308.68594718 -1200.24072266 2307.85107422 C-1202.10546875 2306.66015625 -1202.10546875 2306.66015625 -1205 2304 C-1205.43041992 2302.02880859 -1205.43041992 2302.02880859 -1205.5546875 2299.90234375 C-1205.70164062 2298.61457031 -1205.84859375 2297.32679688 -1206 2296 C-1208.56691507 2293.81313652 -1208.56691507 2293.81313652 -1211.9375 2292.5 C-1225.23895952 2286.06661435 -1236.00482115 2275.17958199 -1246.27832031 2264.68945312 C-1247.88417897 2263.11365308 -1249.5387246 2261.67577315 -1251.26171875 2260.23046875 C-1257.47553511 2254.8231234 -1263.22407053 2248.92464705 -1269.03637695 2243.09399414 C-1271.05764268 2241.0673702 -1273.08419574 2239.04614453 -1275.11132812 2237.02539062 C-1281.28679275 2230.85311069 -1287.37272692 2224.68350455 -1293 2218 C-1294.45445517 2216.39231627 -1295.91220895 2214.78760285 -1297.375 2213.1875 C-1301.23022386 2208.91689849 -1304.87582515 2204.51226331 -1308.4921875 2200.0390625 C-1311.38832973 2196.52940728 -1314.37711065 2193.11009399 -1317.375 2189.6875 C-1323.51275135 2182.64877808 -1329.31498908 2175.40672687 -1335 2168 C-1335.6074707 2167.21318848 -1336.21494141 2166.42637695 -1336.84082031 2165.61572266 C-1357.96199592 2138.24780566 -1377.43244071 2109.62162034 -1395.62255859 2080.22216797 C-1397.11091244 2077.82106964 -1398.61162056 2075.4279528 -1400.11328125 2073.03515625 C-1412.26725988 2053.61258588 -1423.77523477 2033.83099743 -1434.58837891 2013.63085938 C-1435.94799605 2011.09692054 -1437.32280718 2008.57171899 -1438.69921875 2006.046875 C-1459.4683282 1967.5916004 -1477.40824455 1925.37326074 -1484 1882 C-1484.1038501 1881.32179199 -1484.2077002 1880.64358398 -1484.31469727 1879.94482422 C-1484.99219044 1875.09982926 -1485.12120261 1870.37683258 -1485.0625 1865.5 C-1485.05798828 1864.77296875 -1485.05347656 1864.0459375 -1485.04882812 1863.296875 C-1485.03721193 1861.53121319 -1485.01928441 1859.7655947 -1485 1858 C-1486.423125 1857.5359375 -1486.423125 1857.5359375 -1487.875 1857.0625 C-1491 1856 -1491 1856 -1493 1855 C-1495.27941907 1846.5101586 -1495.62100024 1837.39322834 -1496.4602356 1828.65704346 C-1498.03550799 1812.40595218 -1500.17685101 1796.27556771 -1502.5625 1780.125 C-1508.62190978 1738.99597693 -1511.69684109 1697.60073625 -1511 1656 C-1510.98211426 1654.89188965 -1510.96422852 1653.7837793 -1510.94580078 1652.64208984 C-1510.64557094 1636.48884806 -1509.86665561 1620.38148965 -1508.74609375 1604.265625 C-1508.68277988 1603.35042147 -1508.61946602 1602.43521793 -1508.55423355 1601.49228096 C-1507.07592463 1580.3781941 -1504.93085602 1559.34395379 -1502.68023682 1538.30041504 C-1502.16159182 1533.43587548 -1501.6514742 1528.57044145 -1501.140625 1523.70507812 C-1500.39566274 1516.61596611 -1499.64604903 1509.52736935 -1498.89208984 1502.43920898 C-1498.23884998 1496.29494583 -1497.60380224 1490.14933138 -1497 1484 C-1494.36 1484 -1491.72 1484 -1489 1484 C-1488.88785156 1482.77667969 -1488.77570313 1481.55335937 -1488.66015625 1480.29296875 C-1482.59484768 1426.14822284 -1460.75398777 1369.66747531 -1437.34472656 1320.81298828 C-1435.92861978 1317.85068212 -1434.53757268 1314.87738479 -1433.1484375 1311.90234375 C-1421.80545541 1287.75325554 -1408.8949402 1264.66723973 -1394.859375 1242.00341797 C-1393.28277698 1239.45676503 -1391.7165222 1236.90432287 -1390.15625 1234.34765625 C-1380.42794709 1218.48274371 -1369.65039676 1203.30780627 -1358.67236328 1188.29003906 C-1356.95196176 1185.93421916 -1355.23962134 1183.57266674 -1353.52734375 1181.2109375 C-1346.43960403 1171.4724185 -1339.10591866 1162.00002694 -1331.42382812 1152.72363281 C-1329.41159527 1150.28769935 -1327.4269225 1147.82957525 -1325.4375 1145.375 C-1317.19085467 1135.32251993 -1308.68306976 1125.54443744 -1299.81640625 1116.03515625 C-1297.25536657 1113.28665992 -1294.74776222 1110.49373371 -1292.25 1107.6875 C-1288.99374272 1104.04919088 -1285.63146207 1100.56901008 -1282.1171875 1097.1796875 C-1280.31880099 1095.32821209 -1278.64992058 1093.43966426 -1276.97265625 1091.48046875 C-1272.56971953 1086.41474953 -1267.83768896 1081.68740211 -1263.0847168 1076.9543457 C-1261.56508332 1075.4400742 -1260.05087483 1073.9205257 -1258.53710938 1072.40039062 C-1253.77103279 1067.63105204 -1248.95575594 1062.97195591 -1243.83032227 1058.58520508 C-1240.68969301 1055.86516963 -1237.70255175 1052.98246227 -1234.6875 1050.125 C-1229.54630279 1045.29019802 -1224.3137549 1040.67260007 -1218.796875 1036.265625 C-1215.53168326 1033.62063728 -1212.36247952 1030.87688155 -1209.1875 1028.125 C-1171.28841439 995.46295377 -1128.68622269 967.23550917 -1085 943 C-1084.09942871 942.49823242 -1083.19885742 941.99646484 -1082.27099609 941.47949219 C-1012.61036321 902.79132967 -937.67135116 873.68260998 -806 847 C-806.32347412 845.88181885 -806.64694824 844.7636377 -806.98022461 843.61157227 C-808.17709799 838.78207739 -808.34599378 834.173731 -808.31640625 829.21484375 C-808.31043175 827.79183205 -808.31043175 827.79183205 -808.30433655 826.34007263 C-808.11610087 813.99057684 -806.50719532 801.79790198 -804.9375 789.5625 C-804.61740214 787.00118367 -804.29766522 784.4398222 -803.97827148 781.87841797 C-797.46247035 730.1172785 -789.1656602 678.75183389 -777 628 C-776.83262329 627.29891113 -776.66524658 626.59782227 -776.49279785 625.87548828 C-771.48889256 604.96564724 -765.36665624 584.47862493 -758.67382812 564.05725098 C-758.02718595 562.08300086 -757.38441633 560.10752528 -756.7421875 558.13183594 C-750.69002887 539.62882516 -743.59120783 521.70927588 -735.81774902 503.87835693 C-735.02240739 502.05146942 -734.23231777 500.22229823 -733.44238281 498.39306641 C-703.79857357 429.92817919 -664.60834308 366.21586872 -617.1640625 308.62890625 C-615.73486776 306.89271842 -614.31282724 305.1506136 -612.8984375 303.40234375 C-603.6271986 291.95657791 -593.89487376 280.90831521 -584 270 C-582.56225299 268.39605471 -581.12475923 266.79188239 -579.6875 265.1875 C-572.34125897 257.03636648 -564.9963664 248.90041114 -557.1875 241.1875 C-554.25617281 238.2894361 -551.41051378 235.39793615 -548.75 232.25 C-541.23720017 223.46384427 -532.7718381 215.11738919 -523.94140625 207.66015625 C-521.46555003 205.54297538 -519.08338732 203.33218171 -516.6875 201.125 C-511.28547439 196.20397667 -505.6897671 191.58221702 -500 187 C-498.74670618 185.97871033 -497.49414591 184.95652001 -496.2421875 183.93359375 C-488.19089015 177.3594636 -480.08471154 170.86436177 -471.88525391 164.47607422 C-469.84693349 162.88015538 -467.8197765 161.2706666 -465.79296875 159.66015625 C-455.80670885 151.76087293 -445.54529901 144.42696794 -434.97363281 137.33349609 C-432.5810809 135.71695496 -430.22538108 134.05213633 -427.875 132.375 C-405.32657192 116.57576128 -381.40711931 102.40539794 -357.046875 89.60351562 C-353.88874158 87.94144669 -350.74136628 86.26001394 -347.59375 84.578125 C-273.87161508 45.4657087 -192.87813739 19.78774451 0 0 Z M-53.32568359 132.00878906 C-56.75281769 134.56052411 -58.6042358 134.42625083 -62.8359375 134.28515625 C-64.20816838 134.2560002 -65.58040156 134.22695226 -66.95263672 134.19799805 C-67.67255798 134.17522797 -68.39247925 134.15245789 -69.13421631 134.1289978 C-159.62677906 131.44352816 -250.12461512 169.40328614 -381 256 C-382.5159375 257.14855469 -382.5159375 257.14855469 -384.0625 258.3203125 C-396.82078307 268.02299071 -409.19788031 278.20488984 -421.38037109 288.61865234 C-423.05774396 290.04924862 -424.74135817 291.47224562 -426.42578125 292.89453125 C-433.76561425 299.1127166 -440.87433191 305.53327828 -447.89453125 312.109375 C-450.24512684 314.30766266 -452.62657579 316.45851515 -455.0625 318.5625 C-464.51838843 326.76949751 -473.5094736 335.41125522 -482.375 344.25 C-483.64102051 345.50913208 -483.64102051 345.50913208 -484.93261719 346.79370117 C-489.82840319 351.70160546 -494.50592785 356.723027 -499 362 C-499.99701737 363.15267122 -500.99440071 364.305026 -501.9921875 365.45703125 C-507.30059044 371.62723494 -512.5317465 377.84594063 -517.6640625 384.1640625 C-520.36013044 387.43721522 -523.11042562 390.65970369 -525.875 393.875 C-526.38345459 394.46667969 -526.89190918 395.05835938 -527.41577148 395.66796875 C-528.4419547 396.86174184 -529.46824025 398.05542698 -530.49462891 399.24902344 C-538.10149344 408.09696901 -545.51523823 417.04947903 -552.65917969 426.27685547 C-553.97308411 427.96540925 -555.30100692 429.64195166 -556.6328125 431.31640625 C-562.34649943 438.54304974 -567.41090186 446.00082103 -572 454 C-572.33290039 454.57008789 -572.66580078 455.14017578 -573.00878906 455.72753906 C-585.1726014 476.74614559 -593.6154563 500.27813987 -602 523 C-523.32110356 524.02920674 -444.13123269 514.17838288 -347 482 C-345.76636719 481.57074219 -344.53273438 481.14148438 -343.26171875 480.69921875 C-325.38146457 474.43416862 -308.16529341 466.97969181 -291 459 C-290.00677734 458.54061035 -289.01355469 458.0812207 -287.99023438 457.60791016 C-276.33752036 452.2034896 -264.89164874 446.4674216 -253.57958984 440.38330078 C-250.7736606 438.87862587 -247.95921061 437.39058083 -245.14453125 435.90234375 C-222.53147731 423.8811973 -201.50909565 409.95154428 -180.80517578 394.92407227 C-174.1687038 390.10778725 -167.47668615 385.37339727 -160.76953125 380.65625 C-159.83403442 379.9904895 -159.83403442 379.9904895 -158.87963867 379.3112793 C-157.59498468 378.41507504 -156.2917685 377.54505578 -154.97387695 376.69848633 C-151.29940997 374.42272022 -151.29940997 374.42272022 -149.31640625 370.76171875 C-149.39761719 370.07722656 -149.47882813 369.39273438 -149.5625 368.6875 C-149.706875 367.470625 -149.85125 366.25375 -150 365 C-149.14019531 364.73832031 -148.28039063 364.47664062 -147.39453125 364.20703125 C-129.76158521 357.93708841 -114.20357585 343.84738636 -101 331 C-100.39913574 330.41959961 -99.79827148 329.83919922 -99.17919922 329.24121094 C-91.24818742 321.55259683 -83.74556424 313.76808436 -77 305 C-75.99655623 303.72489633 -74.99261311 302.45018554 -73.98828125 301.17578125 C-58.76291836 281.71177223 -46.02092947 260.8557201 -34.20117188 239.19384766 C-33.09800234 237.17899371 -31.98010982 235.1730823 -30.859375 233.16796875 C-4.18166504 186.71121666 -4.18166504 186.71121666 0.5 136.1875 C0.005 134.475625 -0.49 132.76375 -1 131 C-4.63 131.99 -8.26 132.98 -12 134 C-12.99 133.01 -13.98 132.02 -15 131 C-17.5716587 130.60644008 -19.91615969 130.39298891 -22.5 130.3125 C-23.23959961 130.28196533 -23.97919922 130.25143066 -24.74121094 130.2199707 C-27.16054023 130.12973872 -29.57988033 130.06528079 -32 130 C-32.85013672 129.96745117 -33.70027344 129.93490234 -34.57617188 129.90136719 C-37.13407827 129.80609528 -39.69092922 129.74201717 -42.25 129.6875 C-43.04728516 129.65760986 -43.84457031 129.62771973 -44.66601562 129.59692383 C-45.42076172 129.58943115 -46.17550781 129.58193848 -46.953125 129.57421875 C-47.61473633 129.55963623 -48.27634766 129.54505371 -48.95800781 129.5300293 C-51.23484553 129.88659861 -51.23484553 129.88659861 -53.32568359 132.00878906 Z M-1056 1073 C-1056.6590332 1073.42877441 -1057.31806641 1073.85754883 -1057.99707031 1074.29931641 C-1077.83614881 1087.25080856 -1096.86100484 1101.25046911 -1115.18725586 1116.26318359 C-1119.45423242 1119.75765839 -1123.76945771 1123.17933512 -1128.125 1126.5625 C-1134.6669062 1131.66195056 -1140.95731835 1137.02452986 -1147.21923828 1142.46191406 C-1149.05252387 1144.04536611 -1150.89739794 1145.61426346 -1152.74609375 1147.1796875 C-1158.15591283 1151.76618066 -1163.5031157 1156.31353464 -1168.4296875 1161.42578125 C-1170.2125956 1163.21312444 -1172.08721375 1164.85267648 -1174 1166.5 C-1174.66 1167.08007812 -1175.32 1167.66015625 -1176 1168.2578125 C-1177.33504423 1169.42076119 -1178.68963673 1170.56163598 -1180.0625 1171.6796875 C-1183.80490971 1174.91338322 -1183.80490971 1174.91338322 -1185.43359375 1179.44140625 C-1185.43708714 1181.67368545 -1185.31545446 1183.79181877 -1185 1186 C-1185.87785156 1186.09023437 -1186.75570312 1186.18046875 -1187.66015625 1186.2734375 C-1191.40425581 1187.08794337 -1193.3903323 1188.33409598 -1196.4375 1190.625 C-1197.32308594 1191.27726562 -1198.20867187 1191.92953125 -1199.12109375 1192.6015625 C-1205.37554071 1197.81218724 -1210.46086041 1203.61028296 -1215.3125 1210.125 C-1216.45423849 1211.63816315 -1217.59616724 1213.15118276 -1218.73828125 1214.6640625 C-1219.29338379 1215.40301758 -1219.84848633 1216.14197266 -1220.42041016 1216.90332031 C-1222.59204362 1219.78585326 -1224.79449943 1222.64328312 -1227 1225.5 C-1232.43579593 1232.56390872 -1237.86444197 1239.63292333 -1243.26269531 1246.72558594 C-1244.98679158 1248.98270803 -1246.72340738 1251.22977313 -1248.4609375 1253.4765625 C-1256.15641452 1263.50103099 -1263.3632264 1273.8037646 -1270.375 1284.3125 C-1270.78952423 1284.93208588 -1271.20404846 1285.55167175 -1271.63113403 1286.19003296 C-1277.70996548 1295.29476491 -1283.43587277 1304.57302205 -1289 1314 C-1289.77827148 1315.30360474 -1289.77827148 1315.30360474 -1290.57226562 1316.63354492 C-1334.25219504 1390.01239924 -1360.47424847 1473.99383934 -1358.90991211 1826.27386475 C-1354.73797053 1842.66632582 -1350.1438337 1858.88451559 -1345 1875 C-1344.64760254 1876.12003418 -1344.29520508 1877.24006836 -1343.93212891 1878.39404297 C-1335.282288 1905.77400991 -1324.45633969 1932.13856735 -1312 1958 C-1311.48324707 1959.07733398 -1310.96649414 1960.15466797 -1310.43408203 1961.26464844 C-1302.69896642 1977.306264 -1294.18894194 1992.74921419 -1285 2008 C-1284.50757813 2008.82467773 -1284.01515625 2009.64935547 -1283.5078125 2010.49902344 C-1269.46831833 2034.01129786 -1253.8013425 2056.38772363 -1237 2078 C-1236.51644043 2078.62535645 -1236.03288086 2079.25071289 -1235.53466797 2079.89501953 C-1229.35685219 2087.88243385 -1222.9938805 2095.68106291 -1216.41796875 2103.34375 C-1214.95988526 2105.04685578 -1213.51053148 2106.75709274 -1212.0625 2108.46875 C-1207.0958243 2114.32349067 -1202.05415335 2120.07692773 -1196.8125 2125.6875 C-1192.47745982 2130.32921235 -1188.39310797 2135.10332163 -1184.40625 2140.05078125 C-1174.13828249 2152.63570896 -1163.37919897 2164.4502393 -1151 2175 C-1148.57965327 2177.0790815 -1146.16409261 2179.16366143 -1143.75 2181.25 C-1143.09974854 2181.81146729 -1142.44949707 2182.37293457 -1141.77954102 2182.95141602 C-1137.70422219 2186.48349388 -1133.70174678 2190.08056741 -1129.75 2193.75 C-1125.24508077 2197.91208826 -1120.61685941 2201.8464912 -1115.83984375 2205.69140625 C-1113.28172217 2207.77097964 -1110.76838919 2209.89066009 -1108.26464844 2212.03466797 C-1043.31084722 2267.60711314 -963.74079596 2307.63330151 -631.02319336 2358.15820312 C-550.55893052 2351.86631917 -471.46459052 2326.9444571 -399 2292 C-398.01854004 2291.52852539 -397.03708008 2291.05705078 -396.02587891 2290.57128906 C-381.6753735 2283.64311976 -367.75554555 2276.04072666 -354 2268 C-353.09233887 2267.47100098 -352.18467773 2266.94200195 -351.24951172 2266.39697266 C-318.53380243 2247.21353702 -286.90206673 2225.26427189 -258.07421875 2200.60546875 C-255.30300845 2198.24135813 -252.47072811 2195.96156042 -249.625 2193.6875 C-243.07655034 2188.35736655 -236.99594346 2182.54416809 -230.86230469 2176.74902344 C-228.55216308 2174.57940434 -226.21606285 2172.43932971 -223.87719727 2170.30078125 C-219.20681047 2166.02911165 -214.63565589 2161.69063832 -210.1875 2157.1875 C-206.5278026 2153.48530974 -202.78205009 2149.99234845 -198.83203125 2146.60546875 C-193.70547516 2142.11290041 -189.19249412 2137.12521639 -184.75 2131.96875 C-183.06201714 2130.06976929 -181.31230266 2128.27994012 -179.5 2126.5 C-175.78769747 2122.83686704 -172.39540646 2118.95593845 -169 2115 C-168.11645345 2113.99168947 -167.23229234 2112.98391726 -166.34765625 2111.9765625 C-159.01814168 2103.58453241 -152.20096695 2094.8732165 -145.49902344 2085.97509766 C-144.15381786 2084.20266881 -142.79128162 2082.44681413 -141.4140625 2080.69921875 C-126.42010437 2061.6049711 -113.25887313 2040.93851323 -101 2020 C-100.57170898 2019.27490234 -100.14341797 2018.54980469 -99.70214844 2017.80273438 C-64.78712751 1958.55451444 -39.22270355 1893.96235719 -23.47924805 1827.03479004 C-23.00544548 1825.0231204 -22.52563188 1823.01295852 -22.04492188 1821.00292969 C-11.86433674 1778.20591028 -4.94826857 1733.30685118 -4.796875 1689.26953125 C-4.78984934 1687.88239512 -4.78276255 1686.49525931 -4.77561951 1685.10812378 C-4.75615092 1680.67624465 -4.75118207 1676.24441755 -4.75 1671.8125 C-4.74955814 1671.05536839 -4.74911629 1670.29823677 -4.74866104 1669.51816177 C-4.74083087 1643.91235376 -5.30657045 1618.48630467 -8 1593 C-8.08721313 1592.17465759 -8.17442627 1591.34931519 -8.26428223 1590.4989624 C-12.82587417 1548.00159878 -20.66227166 1506.22563148 -34.1875 1465.625 C-34.55648407 1464.51431656 -34.55648407 1464.51431656 -34.93292236 1463.38119507 C-39.36440052 1447.28554782 -39.36440052 1447.28554782 -47.57080078 1433.45043945 C-49.58930105 1431.40194098 -49.9567597 1429.40934751 -50.69140625 1426.64453125 C-50.98990479 1425.56131592 -51.28840332 1424.47810059 -51.59594727 1423.36206055 C-51.91490967 1422.19070557 -52.23387207 1421.01935059 -52.5625 1419.8125 C-63.22051778 1382.80488592 -82.08907213 1347.24175826 -101.70019531 1314.20263672 C-102.94836691 1312.08749694 -104.16259945 1309.95660159 -105.3671875 1307.81640625 C-119.68721353 1282.57524738 -136.82039091 1258.58359616 -155 1236 C-155.51030762 1235.36352539 -156.02061523 1234.72705078 -156.54638672 1234.07128906 C-167.02721645 1221.01247476 -177.77968171 1208.26091222 -189.203125 1196.015625 C-191.65810865 1193.38125147 -194.05265624 1190.6981809 -196.4375 1188 C-200.56827203 1183.3801566 -204.93591641 1179.03046527 -209.34350586 1174.67797852 C-212.18996132 1171.854906 -214.92672098 1169.01647316 -217.5 1165.9375 C-221.56145158 1161.14498713 -226.27938927 1157.04709062 -230.91796875 1152.828125 C-233.28159733 1150.67432802 -235.57403635 1148.47227669 -237.8125 1146.1875 C-241.36760243 1142.58074959 -245.1628034 1139.30191369 -249 1136 C-250.16465648 1134.98375324 -251.32866248 1133.96676075 -252.4921875 1132.94921875 C-259.53608062 1126.797846 -266.6235779 1120.75197458 -274 1115 C-275.31519679 1113.96496144 -276.63029164 1112.92979332 -277.9453125 1111.89453125 C-355.09894311 1051.33565999 -442.31264125 1004.85044124 -581 975 C-582.07169434 974.84160645 -583.14338867 974.68321289 -584.24755859 974.52001953 C-604.72401318 971.59030656 -625.26946785 971.55231943 -645.91992188 971.46582031 C-647.08103989 971.45572937 -648.2421579 971.44563843 -649.4384613 971.4352417 C-651.64368132 971.41631508 -653.84904497 971.40930605 -656.05433655 971.41583252 C-657.04259933 971.40558044 -658.03086212 971.39532837 -659.04907227 971.38476562 C-659.91202408 971.38271118 -660.77497589 971.38065674 -661.66407776 971.37854004 C-664 971 -664 971 -665.96975708 969.50021362 C-668.59778073 967.55828005 -670.19055722 967.61990644 -673.43481445 967.61181641 C-674.5313736 967.60251099 -675.62793274 967.59320557 -676.75772095 967.58361816 C-677.94755585 967.58953979 -679.13739075 967.59546143 -680.36328125 967.6015625 C-681.60580658 967.59733276 -682.84833191 967.59310303 -684.12850952 967.58874512 C-687.49246982 967.58341731 -690.85559277 967.59296113 -694.21944809 967.61307526 C-696.31651549 967.62502288 -698.41356 967.63254532 -700.51065063 967.63909912 C-778.36104713 967.91912879 -855.14171403 982.09542018 -1056 1073 Z " fill="#FFFFFF" transform="translate(1529,27)"/>
<path d="M0 0 C283.89181034 0 283.89181034 0 306.3125 4.25 C307.47491211 4.46470947 308.63732422 4.67941895 309.83496094 4.90063477 C320.14186494 6.88234936 330.07734178 9.60231515 340 13 C340.68916504 13.22768066 341.37833008 13.45536133 342.08837891 13.68994141 C383.50431535 27.46196368 419.87769669 58.10982671 439.92529297 96.84326172 C462.95308641 143.05578495 465.62084394 195.98260068 449.6875 244.875 C443.01810623 264.3683382 433.26662522 282.1769257 420 298 C419.57638184 298.51626953 419.15276367 299.03253906 418.71630859 299.56445312 C397.99381873 324.78688675 369.37361573 344.30362362 338 354 C343.31899434 363.62318055 349.02911611 372.98670372 354.80911255 382.33862305 C359.22958872 389.49129856 363.62558842 396.65620704 367.9375 403.875 C372.65487665 411.76991357 377.41158128 419.64039715 382.1875 427.5 C382.54689667 428.09149841 382.90629333 428.68299683 383.27658081 429.29241943 C385.11555791 432.31883097 386.95490619 435.34501668 388.79443359 438.37109375 C392.01259345 443.66545717 395.22747493 448.96181075 398.4425354 454.25805664 C400.21154945 457.17212325 401.98078624 460.08605463 403.75 463 C404.4583344 464.16666602 405.16666773 465.33333269 405.875 466.5 C406.225625 467.0775 406.57625 467.655 406.9375 468.25 C427.12499998 501.49999996 427.12499998 501.49999996 428.18742371 503.24987793 C428.89600711 504.41695408 429.60459475 505.58402764 430.31318665 506.75109863 C432.08022876 509.66147916 433.84719784 512.57190397 435.61401367 515.48242188 C439.21629585 521.41636288 442.81991825 527.34948419 446.42578125 533.28125 C452.98621214 544.07431037 459.54312355 554.86957936 466.0625 565.6875 C466.82300659 566.94433594 466.82300659 566.94433594 467.59887695 568.2265625 C468.05222412 568.98066406 468.50557129 569.73476562 468.97265625 570.51171875 C469.36718994 571.16615967 469.76172363 571.82060059 470.16821289 572.49487305 C471 574 471 574 471 575 C424.14 575 377.28 575 329 575 C323.72 565.76 318.44 556.52 313 547 C307.7514822 537.98904238 307.7514822 537.98904238 302.4921875 528.984375 C296.91570844 519.44177067 291.40788509 509.85942207 285.89111328 500.28222656 C282.76319852 494.85340058 279.63141552 489.42680719 276.5 484 C275.24998121 481.83334417 273.99998122 479.6666775 272.75 477.5 C272.13125 476.4275 271.5125 475.355 270.875 474.25 C250.25 438.5 250.25 438.5 248.37475586 435.24951172 C247.12564482 433.08442929 245.87645871 430.91939018 244.62719727 428.75439453 C241.48797691 423.31384294 238.35009437 417.87252784 235.21484375 412.4296875 C228.27988723 400.39407851 221.31922349 388.37436389 214.30249023 376.38623047 C213.47599976 374.97301514 213.47599976 374.97301514 212.6328125 373.53125 C212.14699707 372.70173828 211.66118164 371.87222656 211.16064453 371.01757812 C210.40241841 369.69953424 209.68002155 368.3600431 209 367 C181.94 366.67 154.88 366.34 127 366 C127 434.97 127 503.94 127 575 C85.09 575 43.18 575 0 575 C0 385.25 0 195.5 0 0 Z M127 107 C127 157.16 127 207.32 127 259 C159.6390625 259.0928125 159.6390625 259.0928125 192.9375 259.1875 C199.77847412 259.21481201 206.61944824 259.24212402 213.66772461 259.27026367 C219.86255421 259.28030417 219.86255421 259.28030417 226.05738831 259.28633118 C228.79181393 259.290903 231.52580629 259.30022503 234.26014709 259.31672668 C261.91443252 259.47628054 288.82482526 258.24416808 310.1875 238.4375 C325.19091993 222.6720016 330.56837685 200.8092053 330.1875 179.50390625 C329.03030707 157.8788634 322.06620551 138.8052584 306 124 C288.30091749 110.20028617 265.84598178 106.82030575 244.04467773 106.88647461 C242.75500878 106.88635407 241.46533983 106.88623354 240.13659 106.88610935 C236.67294711 106.88588517 233.20933932 106.89164763 229.74570465 106.89871979 C226.48611044 106.90444821 223.22651759 106.90468472 219.96691895 106.90539551 C210.45710805 106.91062635 200.94730357 106.92458761 191.4375 106.9375 C170.173125 106.958125 148.90875 106.97875 127 107 Z " fill="#FFFFFF" transform="translate(377,1397)"/>
<path d="M0 0 C137.94 0 275.88 0 418 0 C418 35.31 418 70.62 418 107 C322.3 107 226.6 107 128 107 C128 148.58 128 190.16 128 233 C199.61 233 271.22 233 345 233 C345 266.33 345 299.66 345 334 C273.39 334 201.78 334 128 334 C128 378.55 128 423.1 128 469 C223.7 469 319.4 469 418 469 C418 503.98 418 538.96 418 575 C280.06 575 142.12 575 0 575 C0 385.25 0 195.5 0 0 Z " fill="#FFFFFF" transform="translate(923,1397)"/>
</svg>
